<svg width="32" height="32" viewBox="0 0 32 32" fill="none" xmlns="http://www.w3.org/2000/svg">
<path d="M29.3834 13.1326H29.1505V10.4518C29.1505 8.79668 27.7928 7.4389 26.1377 7.4389H25.771V5.97706C25.771 4.15348 24.2794 2.66687 22.4608 2.66687H3.8434C2.02477 2.66687 0.533203 4.15844 0.533203 5.97706V25.8184C0.533203 27.4735 1.89098 28.8313 3.54607 28.8313H26.1377C27.7928 28.8313 29.1505 27.4735 29.1505 25.8184V22.4388H29.3834C30.8403 22.4388 31.9999 21.2793 31.9999 19.8224V15.7491C31.9999 14.3269 30.8403 13.1326 29.3834 13.1326ZM3.8434 4.52018H22.4261C23.2189 4.52018 23.883 5.1842 23.883 5.97706V7.43395H3.8434C3.05054 7.43395 2.38652 6.76993 2.38652 5.97706C2.38652 5.1842 3.05054 4.52018 3.8434 4.52018ZM27.2972 25.8184C27.2972 26.4477 26.767 26.978 26.1377 26.978H3.54607C2.91674 26.978 2.38652 26.4477 2.38652 25.8184V8.9602C2.81763 9.19311 3.31317 9.29221 3.8434 9.29221H24.0812H26.103C26.7323 9.29221 27.2625 9.82244 27.2625 10.4518V13.1326H23.8532C21.5985 13.1326 19.7799 14.9562 19.7799 17.206V18.4002C19.7799 20.6549 21.6035 22.4735 23.8532 22.4735H27.2625V25.8184H27.2972ZM30.1466 19.8224C30.1466 20.2535 29.8145 20.5855 29.3834 20.5855H23.8532C22.6292 20.5855 21.6679 19.5895 21.6679 18.4002V17.206C21.6679 15.982 22.6639 15.0206 23.8532 15.0206H29.3834C29.8145 15.0206 30.1466 15.3526 30.1466 15.7838V19.8224Z" fill="white"/>
<path d="M24.745 19.2622C25.5496 19.2622 26.2018 18.6099 26.2018 17.8053C26.2018 17.0007 25.5496 16.3484 24.745 16.3484C23.9404 16.3484 23.2881 17.0007 23.2881 17.8053C23.2881 18.6099 23.9404 19.2622 24.745 19.2622Z" fill="white"/>
</svg>
