<svg width="114" height="114" viewBox="0 0 114 114" fill="none" xmlns="http://www.w3.org/2000/svg">
<circle cx="57" cy="57" r="57" fill="#5920D1"/>
<path d="M78.7483 52.3404H78.3699V47.984C78.3699 45.2944 76.1635 43.088 73.4739 43.088H72.8781V40.7126C72.8781 37.7492 70.4543 35.3335 67.499 35.3335H37.2458C34.2905 35.3335 31.8667 37.7573 31.8667 40.7126V72.9548C31.8667 75.6443 34.0731 77.8507 36.7626 77.8507H73.4739C76.1635 77.8507 78.3699 75.6443 78.3699 72.9548V67.4629H78.7483C81.1158 67.4629 83 65.5787 83 63.2112V56.5921C83 54.281 81.1158 52.3404 78.7483 52.3404ZM37.2458 38.3451H67.4426C68.731 38.3451 69.8101 39.4242 69.8101 40.7126V43.08H37.2458C35.9574 43.08 34.8783 42.001 34.8783 40.7126C34.8783 39.4242 35.9574 38.3451 37.2458 38.3451ZM75.3582 72.9548C75.3582 73.9774 74.4966 74.839 73.4739 74.839H36.7626C35.7399 74.839 34.8783 73.9774 34.8783 72.9548V45.5602C35.5789 45.9386 36.3841 46.0997 37.2458 46.0997H70.1322H73.4176C74.4402 46.0997 75.3018 46.9613 75.3018 47.984V52.3404H69.7617C66.0979 52.3404 63.1426 55.3037 63.1426 58.9595V60.9002C63.1426 64.564 66.1059 67.5193 69.7617 67.5193H75.3018V72.9548H75.3582ZM79.9884 63.2112C79.9884 63.9118 79.4489 64.4513 78.7483 64.4513H69.7617C67.7728 64.4513 66.2106 62.8328 66.2106 60.9002V58.9595C66.2106 56.9705 67.8291 55.4084 69.7617 55.4084H78.7483C79.4489 55.4084 79.9884 55.9479 79.9884 56.6484V63.2112Z" fill="white"/>
<path d="M71.2112 62.301C72.5187 62.301 73.5786 61.2411 73.5786 59.9336C73.5786 58.6261 72.5187 57.5662 71.2112 57.5662C69.9037 57.5662 68.8438 58.6261 68.8438 59.9336C68.8438 61.2411 69.9037 62.301 71.2112 62.301Z" fill="white"/>
</svg>
